<svg width="196" height="58" viewBox="0 0 196 58" fill="none" xmlns="http://www.w3.org/2000/svg">
<path d="M5.19522 12.0798C4.26732 12.0798 3.47588 11.9269 2.82089 11.6213C2.17682 11.3047 1.65282 10.8735 1.24892 10.3277C0.856015 9.78185 0.566732 9.16507 0.381153 8.47734C0.195573 7.77868 0.102783 7.05274 0.102783 6.2995V0.371913H2.3624V6.2995C2.3624 6.77983 2.40606 7.24923 2.4934 7.70773C2.59164 8.1553 2.74993 8.55921 2.96826 8.91945C3.18659 9.2797 3.47587 9.56352 3.83612 9.77094C4.19636 9.97835 4.64393 10.0821 5.17884 10.0821C5.72466 10.0821 6.1777 9.97835 6.53794 9.77094C6.9091 9.55261 7.19839 9.26332 7.4058 8.90308C7.62413 8.54284 7.78242 8.13893 7.88066 7.69135C7.97891 7.23286 8.02804 6.76891 8.02804 6.2995V0.371913H10.2714V6.2995C10.2714 7.0964 10.1731 7.84418 9.97663 8.54284C9.79105 9.24149 9.49084 9.85827 9.07602 10.3932C8.67211 10.9172 8.14812 11.332 7.50405 11.6377C6.85997 11.9324 6.09037 12.0798 5.19522 12.0798ZM14.8072 4.53104V11.9979H12.5475V0.371913H14.3487L20.3582 8.03522V0.388287H22.6179V11.9979H20.7348L14.8072 4.53104ZM25.0368 11.9979V0.371913H27.2965V10.0166H33.2241V11.9979H25.0368ZM34.5987 11.9979V0.371913H36.8584V11.9979H34.5987ZM48.7655 11.9979V4.36729L45.7853 10.0493H44.5245L41.5443 4.36729V11.9979H39.2846V0.371913H41.708L45.1467 6.98724L48.6182 0.371913H51.0252V11.9979H48.7655ZM53.4523 11.9979V0.371913H55.712V11.9979H53.4523ZM66.8323 2.3532H63.1152V11.9979H60.8719V2.3532H57.1548V0.371913H66.8323V2.3532ZM76.3487 10.0166V11.9979H68.276V0.371913H76.2013V2.3532H70.5357V5.15328H75.4317V6.98724H70.5357V10.0166H76.3487ZM78.1099 11.9979V0.371913H82.3346C83.6009 0.371913 84.6598 0.633908 85.5112 1.1579C86.3627 1.67097 87.0013 2.36958 87.4271 3.25381C87.8528 4.12713 88.0657 5.09869 88.0657 6.16851C88.0657 7.34748 87.831 8.37363 87.3616 9.24695C86.8922 10.1203 86.2263 10.7971 85.3639 11.2774C84.5124 11.7577 83.5026 11.9979 82.3346 11.9979H78.1099ZM85.7896 6.16851C85.7896 5.41527 85.6532 4.75482 85.3802 4.18717C85.1073 3.6086 84.7143 3.16102 84.2013 2.84444C83.6882 2.51695 83.066 2.3532 82.3346 2.3532H80.3696V10.0166H82.3346C83.0769 10.0166 83.7046 9.85281 84.2176 9.52532C84.7307 9.18691 85.1182 8.72841 85.3802 8.14984C85.6532 7.56035 85.7896 6.89991 85.7896 6.16851ZM93.765 11.9979V0.371913H98.6938C99.2287 0.371913 99.7199 0.481077 100.167 0.699406C100.615 0.917735 101.003 1.21248 101.33 1.58364C101.669 1.9548 101.931 2.36958 102.116 2.82807C102.302 3.28656 102.394 3.75597 102.394 4.23629C102.394 4.89128 102.242 5.51352 101.936 6.10301C101.63 6.6925 101.21 7.17282 100.675 7.54398C100.14 7.91514 99.507 8.10072 98.7757 8.10072H96.0247V11.9979H93.765ZM96.0247 6.11938H98.6446C98.9175 6.11938 99.1632 6.04297 99.3815 5.89014C99.5998 5.73731 99.7745 5.51898 99.9055 5.23515C100.036 4.9404 100.102 4.60745 100.102 4.23629C100.102 3.83238 100.026 3.48852 99.8727 3.20469C99.7308 2.92086 99.5398 2.70799 99.2996 2.56608C99.0704 2.42416 98.8193 2.3532 98.5464 2.3532H96.0247V6.11938ZM108.929 12.0798C108.077 12.0798 107.302 11.916 106.604 11.5885C105.916 11.261 105.321 10.8189 104.819 10.2622C104.328 9.69452 103.945 9.06137 103.673 8.36271C103.4 7.65314 103.263 6.9272 103.263 6.18488C103.263 5.40981 103.405 4.67295 103.689 3.9743C103.984 3.26473 104.382 2.63703 104.884 2.09125C105.397 1.53452 105.998 1.09786 106.686 0.78128C107.384 0.453786 108.148 0.290039 108.978 0.290039C109.819 0.290039 110.583 0.459245 111.27 0.797655C111.969 1.13607 112.564 1.5891 113.055 2.15675C113.547 2.72436 113.929 3.35752 114.202 4.05617C114.474 4.75482 114.611 5.47531 114.611 6.21763C114.611 6.98178 114.469 7.71864 114.185 8.42821C113.901 9.12687 113.503 9.75456 112.99 10.3113C112.488 10.8571 111.887 11.2883 111.189 11.6049C110.501 11.9215 109.748 12.0798 108.929 12.0798ZM105.556 6.18488C105.556 6.68704 105.632 7.17282 105.785 7.64223C105.938 8.11163 106.156 8.53192 106.44 8.90308C106.735 9.26332 107.089 9.55261 107.504 9.77094C107.93 9.97835 108.41 10.0821 108.945 10.0821C109.491 10.0821 109.977 9.97289 110.403 9.75456C110.828 9.52532 111.183 9.22511 111.467 8.85395C111.751 8.47188 111.964 8.05159 112.106 7.5931C112.258 7.1237 112.335 6.65429 112.335 6.18488C112.335 5.68272 112.253 5.2024 112.089 4.74391C111.936 4.2745 111.713 3.85968 111.418 3.49943C111.134 3.12827 110.779 2.83899 110.353 2.63157C109.939 2.41324 109.469 2.30408 108.945 2.30408C108.388 2.30408 107.897 2.4187 107.472 2.64795C107.057 2.86628 106.707 3.16102 106.424 3.53218C106.14 3.90334 105.921 4.31817 105.769 4.77666C105.627 5.23515 105.556 5.70456 105.556 6.18488ZM119.86 0.404662H121.956L123.282 4.25267L124.625 0.404662H126.704L124.707 5.69364L126.181 9.39432L129.472 0.371913H131.928L127.278 11.9979H125.329L123.282 7.11824L121.252 11.9979H119.303L114.669 0.371913H117.093L120.4 9.39432L121.841 5.69364L119.86 0.404662ZM141.192 10.0166V11.9979H133.119V0.371913H141.044V2.3532H135.379V5.15328H140.275V6.98724H135.379V10.0166H141.192ZM142.954 11.9979V0.371913H148.095C148.63 0.371913 149.121 0.481077 149.569 0.699406C150.028 0.917735 150.421 1.21248 150.748 1.58364C151.086 1.9548 151.343 2.36958 151.518 2.82807C151.703 3.28656 151.796 3.75597 151.796 4.23629C151.796 4.72753 151.709 5.2024 151.534 5.66089C151.37 6.10846 151.13 6.50146 150.813 6.83987C150.497 7.17828 150.126 7.44027 149.7 7.62585L152.353 11.9979H149.864L147.473 8.10072H145.213V11.9979H142.954ZM145.213 6.11938H148.046C148.33 6.11938 148.581 6.03751 148.799 5.87376C149.018 5.6991 149.192 5.46985 149.323 5.18602C149.454 4.9022 149.52 4.58562 149.52 4.23629C149.52 3.86513 149.443 3.5431 149.291 3.27019C149.138 2.98636 148.941 2.76257 148.701 2.59882C148.472 2.43508 148.221 2.3532 147.948 2.3532H145.213V6.11938ZM153.843 11.9979V0.371913H161.654V2.3532H156.102V5.34977H160.72V7.18374H156.102V11.9979H153.843ZM168.174 12.0798C167.246 12.0798 166.455 11.9269 165.8 11.6213C165.156 11.3047 164.632 10.8735 164.228 10.3277C163.835 9.78185 163.546 9.16507 163.36 8.47734C163.175 7.77868 163.082 7.05274 163.082 6.2995V0.371913H165.341V6.2995C165.341 6.77983 165.385 7.24923 165.472 7.70773C165.571 8.1553 165.729 8.55921 165.947 8.91945C166.166 9.2797 166.455 9.56352 166.815 9.77094C167.175 9.97835 167.623 10.0821 168.158 10.0821C168.704 10.0821 169.157 9.97835 169.517 9.77094C169.888 9.55261 170.177 9.26332 170.385 8.90308C170.603 8.54284 170.761 8.13893 170.86 7.69135C170.958 7.23286 171.007 6.76891 171.007 6.2995V0.371913H173.25V6.2995C173.25 7.0964 173.152 7.84418 172.956 8.54284C172.77 9.24149 172.47 9.85827 172.055 10.3932C171.651 10.9172 171.127 11.332 170.483 11.6377C169.839 11.9324 169.069 12.0798 168.174 12.0798ZM175.527 11.9979V0.371913H177.786V10.0166H183.714V11.9979H175.527ZM185.089 11.9979V0.371913H187.349V10.0166H193.277V11.9979H185.089ZM1.94939 57.4831V29.7098H7.34758V52.7499H21.508V57.4831H1.94939ZM44.0778 52.7499V57.4831H24.793V29.7098H43.7258V34.443H30.1912V41.1321H41.8873V45.5132H30.1912V52.7499H44.0778ZM55.8367 29.7098H61.3131L71.5227 57.4831H65.968L63.3863 50.5594H53.6852L51.1426 57.4831H45.5879L55.8367 29.7098ZM62.4084 46.765L58.5749 35.3036L54.5849 46.765H62.4084ZM74.5684 57.4831V29.7098H86.8512C88.1294 29.7098 89.3029 29.9707 90.3718 30.4922C91.4671 31.0138 92.4059 31.7179 93.1882 32.6045C93.997 33.4912 94.6101 34.4822 95.0267 35.5774C95.4707 36.6727 95.6917 37.7941 95.6917 38.9415C95.6917 40.1151 95.4834 41.2495 95.0659 42.3447C94.6747 43.414 94.1016 44.3528 93.3447 45.1612C92.5887 45.9696 91.7018 46.5955 90.6847 47.0388L97.0217 57.4831H91.0759L85.3648 48.1732H79.9666V57.4831H74.5684ZM79.9666 43.44H86.7339C87.4125 43.44 88.012 43.2444 88.5333 42.8533C89.0555 42.4361 89.4721 41.8884 89.785 41.2103C90.098 40.5323 90.2544 39.7761 90.2544 38.9415C90.2544 38.0549 90.0725 37.2856 89.7068 36.6336C89.342 35.9556 88.8726 35.421 88.2986 35.0298C87.7509 34.6386 87.1514 34.443 86.4992 34.443H79.9666V43.44ZM105.981 39.6456V57.4831H100.583V29.7098H104.886L119.242 48.0167V29.749H124.64V57.4831H120.142L105.981 39.6456ZM130.418 57.4831V29.7098H135.816V57.4831H130.418ZM147.009 39.6456V57.4831H141.611V29.7098H145.914L160.27 48.0167V29.749H165.668V57.4831H161.17L147.009 39.6456ZM182.984 57.6787C181.185 57.6787 179.477 57.3137 177.86 56.5834C176.27 55.8533 174.862 54.8493 173.635 53.5714C172.436 52.2675 171.497 50.755 170.819 49.0338C170.141 47.3126 169.802 45.4481 169.802 43.44C169.802 41.5364 170.141 39.75 170.819 38.0809C171.497 36.3859 172.449 34.8994 173.674 33.6216C174.901 32.3438 176.334 31.3398 177.977 30.6095C179.62 29.8794 181.407 29.5143 183.336 29.5143C185.944 29.5143 188.174 30.075 190.025 31.1963C191.903 32.2916 193.311 33.752 194.25 35.5774L190.221 38.5504C189.517 37.1682 188.526 36.1121 187.248 35.3819C185.996 34.6517 184.627 34.2866 183.141 34.2866C181.967 34.2866 180.898 34.5344 179.933 35.0298C178.969 35.5253 178.134 36.2033 177.43 37.0639C176.726 37.9245 176.178 38.9155 175.787 40.0368C175.422 41.1582 175.239 42.3447 175.239 43.5965C175.239 44.9265 175.435 46.1522 175.826 47.2735C176.243 48.3949 176.817 49.3728 177.547 50.2073C178.304 51.0419 179.177 51.7069 180.168 52.2023C181.159 52.6717 182.255 52.9064 183.454 52.9064C184.862 52.9064 186.206 52.5413 187.483 51.8111C188.787 51.081 190 50.0117 191.121 48.6035V53.9235C188.8 56.427 186.088 57.6787 182.984 57.6787ZM190.73 47.1562H185.136V43.2053H195.189V57.4831H190.73V47.1562Z" fill="#0C20AB"/>
</svg>
